<svg width="40" height="40" viewBox="0 0 40 40" fill="none" xmlns="http://www.w3.org/2000/svg">
<path fill-rule="evenodd" clip-rule="evenodd" d="M21.3081 0.749969C23.0399 0.749969 24.5279 1.94243 24.8537 3.59158L24.9986 4.32492C25.5681 7.20737 28.6432 8.9287 31.5027 7.96566L32.2306 7.72055C33.8666 7.16958 35.6757 7.82263 36.5416 9.27675L37.8496 11.4731C38.7156 12.9273 38.3942 14.7728 37.0841 15.8709L36.5014 16.3592C34.2113 18.2787 34.2113 21.7213 36.5014 23.6407L37.0841 24.129C38.3942 25.2272 38.7156 27.0727 37.8496 28.5268L36.5417 30.7232C35.6757 32.1773 33.8666 32.8303 32.2304 32.2793L31.5029 32.0342C28.6432 31.071 25.5681 32.7923 24.9986 35.675L24.8537 36.4083C24.5279 38.0575 23.0399 39.25 21.3081 39.25H18.6921C16.9602 39.25 15.4723 38.0575 15.1464 36.4085L15.0014 35.6747C14.4319 32.7923 11.3567 31.071 8.49711 32.0342L7.76973 32.2792C6.13368 32.8303 4.3245 32.1772 3.4585 30.723L2.15058 28.5268C1.28461 27.0727 1.60582 25.2272 2.91601 24.129L3.49878 23.6407C5.78881 21.7212 5.78881 18.2787 3.49878 16.3593L2.91601 15.8709C1.60582 14.7728 1.28461 12.9273 2.15058 11.4732L3.45855 9.2768C4.32451 7.82265 6.13365 7.1696 7.76968 7.7206L8.49726 7.96565C11.3568 8.9287 14.4319 7.20748 15.0014 4.3251L15.1464 3.59145C15.4723 1.94237 16.9601 0.749969 18.6921 0.749969H21.3081ZM20.0001 25.5C23.0376 25.5 25.5001 23.0375 25.5001 20C25.5001 16.9623 23.0376 14.5 20.0001 14.5C16.9624 14.5 14.5 16.9623 14.5 20C14.5 23.0375 16.9624 25.5 20.0001 25.5Z" fill="#8D8D8D"/>
</svg>
