<svg width="40" height="40" viewBox="0 0 40 40" fill="none" xmlns="http://www.w3.org/2000/svg">
<g clip-path="url(#clip0_75_75)">
<path fill-rule="evenodd" clip-rule="evenodd" d="M15.3205 7.00196C19.8672 7.00196 23.57 10.7025 23.57 15.2515V17.6085C23.57 20.1493 22.3915 22.3956 20.579 23.9111C22.54 24.201 24.4822 24.6394 26.3772 25.2569C28.9275 26.0866 30.6411 28.5002 30.6411 31.2603V35.4345L30.0824 35.781C26.9901 37.7043 21.9154 40 15.3205 40C11.679 40 6.15886 39.267 0.55625 35.781L0 35.4345V31.4889C0 28.5591 1.85967 26.0088 4.62444 25.1391C6.40398 24.5828 8.21888 24.1704 10.0479 23.8993C8.24479 22.3838 7.07102 20.1423 7.07102 17.6085V15.2515C7.07102 10.7025 10.7715 7.00196 15.3205 7.00196ZM24.6543 0C29.2009 0 32.9038 3.7005 32.9038 8.24952V10.6065C32.9038 13.1474 31.7253 15.396 29.9127 16.9091C31.8738 17.1991 33.8136 17.6398 35.711 18.255C38.2613 19.0894 39.9748 21.5006 39.9748 24.2606V28.4349L39.4185 28.7814C37.8016 29.7878 35.6308 30.8862 32.9981 31.7135V31.2609C32.9981 27.4756 30.6316 24.1616 27.1079 23.0161C26.341 22.7661 25.5659 22.5421 24.7839 22.3444C25.5287 20.8901 25.927 19.2732 25.927 17.6092V15.2522C25.927 10.0338 22.1346 5.71102 17.1684 4.83185C18.4742 1.98931 21.3262 0 24.6543 0Z" fill="#8D8D8D"/>
</g>
<defs>
<clipPath id="clip0_75_75">
<rect width="40" height="40" fill="white"/>
</clipPath>
</defs>
</svg>
