<svg width="40" height="40" viewBox="0 0 40 40" fill="none" xmlns="http://www.w3.org/2000/svg">
<g clip-path="url(#clip0_75_102)">
<path d="M3.59111 30.0086C3.59111 27.9857 3.59111 4.30063 3.59111 2.27598C5.59406 2.27598 26.9616 2.27598 28.9646 2.27598C28.9646 2.99185 28.9646 6.41932 28.9646 10.6332C29.4545 10.5428 29.957 10.4814 30.4722 10.4814C30.7361 10.4814 30.9856 10.5356 31.2459 10.5591V0H1.31152V32.2846H20.1374V30.0086C13.286 30.0086 4.81676 30.0086 3.59111 30.0086Z" fill="#8D8D8D"/>
<path d="M6.83252 17.3345H22.2942C22.446 16.483 22.7461 15.6912 23.1402 14.9501H6.83252V17.3345Z" fill="#8D8D8D"/>
<path d="M25.7199 7.49487H6.83252V9.8793H25.7199V7.49487Z" fill="#8D8D8D"/>
<path d="M6.83252 24.7914H22.8618C23.2902 24.5311 23.7476 24.3196 24.2374 24.1894C23.7728 23.6489 23.3914 23.0416 23.066 22.407H6.83252V24.7914Z" fill="#8D8D8D"/>
<path d="M30.4741 25.03C33.916 25.03 36.6891 22.248 36.6891 18.8168C36.6891 15.3821 33.916 12.6018 30.4741 12.6018C27.0466 12.6018 24.2717 15.3821 24.2717 18.8168C24.2717 22.248 27.0466 25.03 30.4741 25.03Z" fill="#8D8D8D"/>
<path d="M35.4617 26.0388H25.501C23.7222 26.0388 22.2651 27.6694 22.2651 29.6778V39.6783C22.2651 39.7886 22.3158 39.8862 22.323 40.0001H38.6306C38.6378 39.8881 38.6885 39.7886 38.6885 39.6783V29.6778C38.6957 27.6748 37.2423 26.0388 35.4617 26.0388Z" fill="#8D8D8D"/>
</g>
<defs>
<clipPath id="clip0_75_102">
<rect width="40" height="40" fill="white"/>
</clipPath>
</defs>
</svg>
